<mxfile host="65bd71144e">
    <diagram id="sq8NBnpm2IH0EEg_0ba1" name="第 1 页">
        <mxGraphModel dx="894" dy="658" grid="1" gridSize="10" guides="1" tooltips="1" connect="1" arrows="1" fold="1" page="1" pageScale="1" pageWidth="827" pageHeight="1169" math="0" shadow="0">
            <root>
                <mxCell id="0"/>
                <mxCell id="1" parent="0"/>
                <mxCell id="ocD7cUCn12o1qOvbzFC7-5" value="heap" style="rounded=0;whiteSpace=wrap;html=1;" parent="1" vertex="1">
                    <mxGeometry x="90" y="130" width="620" height="60" as="geometry"/>
                </mxCell>
                <mxCell id="ocD7cUCn12o1qOvbzFC7-6" value="heap aligned" style="rounded=0;whiteSpace=wrap;html=1;fontColor=#FFFFFF;" parent="1" vertex="1">
                    <mxGeometry x="90" y="230" width="620" height="60" as="geometry"/>
                </mxCell>
                <mxCell id="ocD7cUCn12o1qOvbzFC7-7" value="" style="rounded=0;whiteSpace=wrap;html=1;fillColor=#0050ef;strokeColor=#001DBC;fontColor=#000000;" parent="1" vertex="1">
                    <mxGeometry x="90" y="230" width="10" height="60" as="geometry"/>
                </mxCell>
                <mxCell id="ocD7cUCn12o1qOvbzFC7-8" value="free" style="rounded=0;whiteSpace=wrap;html=1;fillColor=#d5e8d4;strokeColor=#82b366;fontColor=#000000;" parent="1" vertex="1">
                    <mxGeometry x="90" y="320" width="620" height="60" as="geometry"/>
                </mxCell>
                <mxCell id="ocD7cUCn12o1qOvbzFC7-9" value="" style="rounded=0;whiteSpace=wrap;html=1;fillColor=#0050ef;strokeColor=#001DBC;fontColor=#000000;" parent="1" vertex="1">
                    <mxGeometry x="90" y="320" width="10" height="60" as="geometry"/>
                </mxCell>
                <mxCell id="ocD7cUCn12o1qOvbzFC7-10" value="" style="rounded=0;whiteSpace=wrap;html=1;fillColor=#e51400;strokeColor=#B20000;fontColor=#000000;" parent="1" vertex="1">
                    <mxGeometry x="100" y="320" width="10" height="60" as="geometry"/>
                </mxCell>
                <mxCell id="ocD7cUCn12o1qOvbzFC7-12" value="free" style="rounded=0;whiteSpace=wrap;html=1;fillColor=#d5e8d4;strokeColor=#82b366;fontColor=#000000;" parent="1" vertex="1">
                    <mxGeometry x="360" y="420" width="350" height="60" as="geometry"/>
                </mxCell>
                <mxCell id="ocD7cUCn12o1qOvbzFC7-13" value="" style="rounded=0;whiteSpace=wrap;html=1;fillColor=#0050ef;strokeColor=#001DBC;fontColor=#000000;" parent="1" vertex="1">
                    <mxGeometry x="90" y="420" width="10" height="60" as="geometry"/>
                </mxCell>
                <mxCell id="ocD7cUCn12o1qOvbzFC7-14" value="" style="rounded=0;whiteSpace=wrap;html=1;fillColor=#e51400;strokeColor=#B20000;fontColor=#000000;" parent="1" vertex="1">
                    <mxGeometry x="100" y="420" width="10" height="60" as="geometry"/>
                </mxCell>
                <mxCell id="ocD7cUCn12o1qOvbzFC7-15" value="" style="rounded=0;whiteSpace=wrap;html=1;fillColor=#e51400;strokeColor=#B20000;fontColor=#000000;" parent="1" vertex="1">
                    <mxGeometry x="350" y="420" width="10" height="60" as="geometry"/>
                </mxCell>
                <mxCell id="ocD7cUCn12o1qOvbzFC7-16" value="used" style="rounded=0;whiteSpace=wrap;html=1;fillColor=#e1d5e7;strokeColor=#9673a6;fontColor=#000000;" parent="1" vertex="1">
                    <mxGeometry x="110" y="420" width="240" height="60" as="geometry"/>
                </mxCell>
                <mxCell id="ocD7cUCn12o1qOvbzFC7-17" value="free" style="rounded=0;whiteSpace=wrap;html=1;fillColor=#d5e8d4;strokeColor=#82b366;fontColor=#000000;" parent="1" vertex="1">
                    <mxGeometry x="570" y="525" width="140" height="60" as="geometry"/>
                </mxCell>
                <mxCell id="ocD7cUCn12o1qOvbzFC7-18" value="" style="rounded=0;whiteSpace=wrap;html=1;fillColor=#0050ef;strokeColor=#001DBC;fontColor=#000000;" parent="1" vertex="1">
                    <mxGeometry x="90" y="525" width="10" height="60" as="geometry"/>
                </mxCell>
                <mxCell id="ocD7cUCn12o1qOvbzFC7-19" value="" style="rounded=0;whiteSpace=wrap;html=1;fillColor=#e51400;strokeColor=#B20000;fontColor=#000000;" parent="1" vertex="1">
                    <mxGeometry x="100" y="525" width="10" height="60" as="geometry"/>
                </mxCell>
                <mxCell id="ocD7cUCn12o1qOvbzFC7-20" value="" style="rounded=0;whiteSpace=wrap;html=1;fillColor=#e51400;strokeColor=#B20000;fontColor=#000000;" parent="1" vertex="1">
                    <mxGeometry x="350" y="525" width="10" height="60" as="geometry"/>
                </mxCell>
                <mxCell id="ocD7cUCn12o1qOvbzFC7-21" value="used" style="rounded=0;whiteSpace=wrap;html=1;fillColor=#e1d5e7;strokeColor=#9673a6;fontColor=#000000;" parent="1" vertex="1">
                    <mxGeometry x="110" y="525" width="240" height="60" as="geometry"/>
                </mxCell>
                <mxCell id="ocD7cUCn12o1qOvbzFC7-22" value="used" style="rounded=0;whiteSpace=wrap;html=1;fillColor=#e1d5e7;strokeColor=#9673a6;fontColor=#000000;" parent="1" vertex="1">
                    <mxGeometry x="360" y="525" width="200" height="60" as="geometry"/>
                </mxCell>
                <mxCell id="ocD7cUCn12o1qOvbzFC7-23" value="" style="rounded=0;whiteSpace=wrap;html=1;fillColor=#e51400;strokeColor=#B20000;fontColor=#000000;" parent="1" vertex="1">
                    <mxGeometry x="560" y="525" width="10" height="60" as="geometry"/>
                </mxCell>
                <mxCell id="ocD7cUCn12o1qOvbzFC7-24" value="free" style="rounded=0;whiteSpace=wrap;html=1;fillColor=#d5e8d4;strokeColor=#82b366;fontColor=#000000;" parent="1" vertex="1">
                    <mxGeometry x="570" y="630" width="140" height="60" as="geometry"/>
                </mxCell>
                <mxCell id="ocD7cUCn12o1qOvbzFC7-25" value="" style="rounded=0;whiteSpace=wrap;html=1;fillColor=#0050ef;strokeColor=#001DBC;fontColor=#000000;" parent="1" vertex="1">
                    <mxGeometry x="90" y="630" width="10" height="60" as="geometry"/>
                </mxCell>
                <mxCell id="ocD7cUCn12o1qOvbzFC7-26" value="" style="rounded=0;whiteSpace=wrap;html=1;fillColor=#e51400;strokeColor=#B20000;fontColor=#000000;" parent="1" vertex="1">
                    <mxGeometry x="100" y="630" width="10" height="60" as="geometry"/>
                </mxCell>
                <mxCell id="ocD7cUCn12o1qOvbzFC7-27" value="" style="rounded=0;whiteSpace=wrap;html=1;fillColor=#e51400;strokeColor=#B20000;fontColor=#000000;" parent="1" vertex="1">
                    <mxGeometry x="350" y="630" width="10" height="60" as="geometry"/>
                </mxCell>
                <mxCell id="ocD7cUCn12o1qOvbzFC7-28" value="free" style="rounded=0;whiteSpace=wrap;html=1;fillColor=#d5e8d4;strokeColor=#82b366;fontColor=#000000;" parent="1" vertex="1">
                    <mxGeometry x="110" y="630" width="240" height="60" as="geometry"/>
                </mxCell>
                <mxCell id="ocD7cUCn12o1qOvbzFC7-29" value="used" style="rounded=0;whiteSpace=wrap;html=1;fillColor=#e1d5e7;strokeColor=#9673a6;fontColor=#000000;" parent="1" vertex="1">
                    <mxGeometry x="360" y="630" width="200" height="60" as="geometry"/>
                </mxCell>
                <mxCell id="ocD7cUCn12o1qOvbzFC7-30" value="" style="rounded=0;whiteSpace=wrap;html=1;fillColor=#e51400;strokeColor=#B20000;fontColor=#000000;" parent="1" vertex="1">
                    <mxGeometry x="560" y="630" width="10" height="60" as="geometry"/>
                </mxCell>
                <mxCell id="ocD7cUCn12o1qOvbzFC7-31" value="free" style="rounded=0;whiteSpace=wrap;html=1;fillColor=#d5e8d4;strokeColor=#82b366;fontColor=#000000;" parent="1" vertex="1">
                    <mxGeometry x="570" y="740" width="140" height="60" as="geometry"/>
                </mxCell>
                <mxCell id="ocD7cUCn12o1qOvbzFC7-32" value="" style="rounded=0;whiteSpace=wrap;html=1;fillColor=#0050ef;strokeColor=#001DBC;fontColor=#000000;" parent="1" vertex="1">
                    <mxGeometry x="90" y="740" width="10" height="60" as="geometry"/>
                </mxCell>
                <mxCell id="ocD7cUCn12o1qOvbzFC7-33" value="" style="rounded=0;whiteSpace=wrap;html=1;fillColor=#e51400;strokeColor=#B20000;fontColor=#000000;" parent="1" vertex="1">
                    <mxGeometry x="100" y="740" width="10" height="60" as="geometry"/>
                </mxCell>
                <mxCell id="ocD7cUCn12o1qOvbzFC7-35" value="free" style="rounded=0;whiteSpace=wrap;html=1;fillColor=#d5e8d4;strokeColor=#82b366;fontColor=#000000;" parent="1" vertex="1">
                    <mxGeometry x="110" y="740" width="240" height="60" as="geometry"/>
                </mxCell>
                <mxCell id="ocD7cUCn12o1qOvbzFC7-36" value="free" style="rounded=0;whiteSpace=wrap;html=1;fillColor=#d5e8d4;strokeColor=#82b366;fontColor=#000000;" parent="1" vertex="1">
                    <mxGeometry x="350" y="740" width="220" height="60" as="geometry"/>
                </mxCell>
                <mxCell id="ocD7cUCn12o1qOvbzFC7-38" value="free" style="rounded=0;whiteSpace=wrap;html=1;fillColor=#d5e8d4;strokeColor=#82b366;fontColor=#000000;" parent="1" vertex="1">
                    <mxGeometry x="90" y="840" width="620" height="60" as="geometry"/>
                </mxCell>
                <mxCell id="ocD7cUCn12o1qOvbzFC7-39" value="" style="rounded=0;whiteSpace=wrap;html=1;fillColor=#0050ef;strokeColor=#001DBC;fontColor=#000000;" parent="1" vertex="1">
                    <mxGeometry x="90" y="840" width="10" height="60" as="geometry"/>
                </mxCell>
                <mxCell id="ocD7cUCn12o1qOvbzFC7-40" value="" style="rounded=0;whiteSpace=wrap;html=1;fillColor=#e51400;strokeColor=#B20000;fontColor=#000000;" parent="1" vertex="1">
                    <mxGeometry x="100" y="840" width="10" height="60" as="geometry"/>
                </mxCell>
                <mxCell id="2" value="" style="rounded=0;whiteSpace=wrap;html=1;fillColor=#0050ef;strokeColor=#001DBC;fontColor=#000000;" vertex="1" parent="1">
                    <mxGeometry x="90" y="10" width="10" height="60" as="geometry"/>
                </mxCell>
                <mxCell id="3" value="Text" style="text;html=1;strokeColor=none;fillColor=none;align=center;verticalAlign=middle;whiteSpace=wrap;rounded=0;fontColor=#FFFFFF;" vertex="1" parent="1">
                    <mxGeometry x="370" y="300" width="40" height="20" as="geometry"/>
                </mxCell>
                <mxCell id="4" value="Aligned size" style="text;html=1;strokeColor=none;fillColor=none;align=left;verticalAlign=middle;whiteSpace=wrap;rounded=0;fontColor=#FFFFFF;" vertex="1" parent="1">
                    <mxGeometry x="110" y="30" width="40" height="20" as="geometry"/>
                </mxCell>
                <mxCell id="5" value="" style="rounded=0;whiteSpace=wrap;html=1;fillColor=#e51400;strokeColor=#B20000;fontColor=#000000;" vertex="1" parent="1">
                    <mxGeometry x="225" y="10" width="10" height="60" as="geometry"/>
                </mxCell>
                <mxCell id="6" value="memory block mamanger" style="text;html=1;strokeColor=none;fillColor=none;align=left;verticalAlign=middle;whiteSpace=wrap;rounded=0;fontColor=#FFFFFF;" vertex="1" parent="1">
                    <mxGeometry x="250" y="30" width="40" height="20" as="geometry"/>
                </mxCell>
            </root>
        </mxGraphModel>
    </diagram>
</mxfile>